<?xml version="1.0" encoding="UTF-8" standalone="no"?>
<!-- Created with Inkscape (http://www.inkscape.org/) -->

<svg
   width="41.679596mm"
   height="39.589893mm"
   viewBox="0 0 41.679596 39.589893"
   version="1.1"
   id="svg1"
   inkscape:version="1.4.2 (ebf0e940, 2025-05-08)"
   sodipodi:docname="tiled.svg"
   xml:space="preserve"
   xmlns:inkscape="http://www.inkscape.org/namespaces/inkscape"
   xmlns:sodipodi="http://sodipodi.sourceforge.net/DTD/sodipodi-0.dtd"
   xmlns="http://www.w3.org/2000/svg"
   xmlns:svg="http://www.w3.org/2000/svg"><sodipodi:namedview
     id="namedview1"
     pagecolor="#ffffff"
     bordercolor="#000000"
     borderopacity="0.25"
     inkscape:showpageshadow="2"
     inkscape:pageopacity="0.0"
     inkscape:pagecheckerboard="0"
     inkscape:deskcolor="#d1d1d1"
     inkscape:document-units="mm"
     inkscape:zoom="0.50253119"
     inkscape:cx="1131.2731"
     inkscape:cy="2237.6721"
     inkscape:window-width="1728"
     inkscape:window-height="995"
     inkscape:window-x="0"
     inkscape:window-y="34"
     inkscape:window-maximized="1"
     inkscape:current-layer="layer1"><inkscape:page
       x="0"
       y="0"
       width="41.679596"
       height="39.589893"
       id="page2"
       margin="0"
       bleed="0" /></sodipodi:namedview><defs
     id="defs1" /><g
     inkscape:groupmode="layer"
     id="g264"
     inkscape:label="Layer 4"
     style="display:inline"
     transform="translate(-446.82026,-731.41386)"><path
       id="rect268"
       style="display:inline;fill:#ffffff;stroke:#030305;stroke-width:0"
       d="m 459.89027,746.10346 h 15.50031 v 24.90029 h -15.50031 z m -13.07001,-14.68951 h 41.67962 v 14.68954 h -41.67962 z" /><path
       id="path254-1"
       style="baseline-shift:baseline;display:inline;overflow:visible;vector-effect:none;fill:#1d70a2;enable-background:accumulate;stop-color:#000000"
       d="m 473.72611,731.41391 2.21898,1.61333 4.61057,3.34915 0.70177,-2.15852 0.91054,-2.80396 h -6.42803 z m -1.26142,0.21755 -4.60954,3.34915 -2.88406,2.09652 2.86287,8.80979 7.49412,-5.44566 z m 8.75605,5.66167 0.9865,3.03444 1.87844,5.77588 h 4.4142 v -8.81032 z m -26.66245,0.7829 -2.6076,8.02742 h 5.21726 z m 13.27567,8.94364 -1.5198,4.67568 -1.34307,4.13464 2.88406,2.09599 4.60954,3.34915 2.86339,-8.81031 z m -7.93388,13.25759 v 3.12901 l 2.15439,-1.56425 z"
       inkscape:export-filename="tiled-logo-no-border.svg"
       inkscape:export-xdpi="48.570576"
       inkscape:export-ydpi="48.570576" /><path
       id="path248-8"
       style="baseline-shift:baseline;display:inline;overflow:visible;vector-effect:none;fill:#6daedb;enable-background:accumulate;stop-color:#000000"
       d="m 462.76347,731.41391 -3.00809,2.18591 -4.11912,2.99413 h 3.91449 4.89272 l 2.99982,-2.17971 4.13049,-3.00033 h -3.92379 -4.886 z m -15.94321,0.33848 v 10.88977 l 4.46484,3.24425 2.86287,-8.81032 -4.51031,-3.2768 z m 26.49399,0.22789 2.72438,8.37933 7.12566,5.17643 -2.72283,-8.37675 -4.90668,-3.56567 z m -13.41417,14.82235 v 8.81083 h 4.40438 l 2.86339,-8.81083 z m 15.49053,7.7401 -2.0743,6.38152 2.0743,-1.50637 z m -12.25972,7.64863 2.86287,8.81083 h 1.65623 7.60884 l -1.58543,-4.87671 -1.27899,-3.93412 h -4.74442 z" /><path
       id="path262-7"
       style="baseline-shift:baseline;display:inline;overflow:visible;vector-effect:none;fill:#1b1b3a;enable-background:accumulate;stop-color:#000000"
       d="m 447.54683,731.41391 7.01352,5.09581 4.78317,-3.47628 2.23036,-1.61953 h -2.02313 z m 35.35701,0 -1.68258,5.18004 h 7.27862 v -5.18004 z m -27.86186,5.87922 2.21123,6.80837 0.65061,2.00195 h 1.64693 7.6171 l -2.86339,-8.81032 h -4.75371 z m 20.69899,3.71451 -7.49515,5.44566 7.14479,5.1909 v -5.54075 h 7.36285 l -2.65203,-1.92753 z m -28.92071,2.5001 v 2.59571 h 3.57187 z m 13.07982,12.80645 v 3.09749 l 2.86442,2.08049 h 4.88549 3.92224 l -4.12894,-2.99981 -2.99827,-2.17817 z m 15.49053,3.9672 -2.32854,1.69344 2.32854,7.16597 z m -12.92531,2.12804 -2.56471,1.8619 -0.0103,6.73241 5.36815,-0.002 -1.83142,-5.6348 z" /></g><g
     inkscape:label="Layer 1"
     inkscape:groupmode="layer"
     id="layer1"
     style="display:none"
     transform="translate(-446.82026,-731.41386)"><path
       style="fill:#1b1b3a;fill-opacity:1;stroke:#030305;stroke-width:0.5;stroke-dasharray:none;stroke-opacity:1"
       d="m 406.25535,724.82635 42.36752,0.01 0.0159,15.38345 h -13.11032 v 24.89875 l -16.18219,-0.003 -0.008,-24.8957 h -13.08025 z"
       id="path14-1" /><rect
       style="fill:none;fill-opacity:1;stroke:#1b1b3a;stroke-width:0.5;stroke-dasharray:none;stroke-opacity:1"
       id="rect14-1"
       width="52.38475"
       height="49.806152"
       x="400.83038"
       y="720.55255" /></g></svg>
