<?xml version="1.0" encoding="UTF-8" standalone="no"?>
<!-- Created with Inkscape (http://www.inkscape.org/) -->

<svg
   width="33.468822mm"
   height="32.740505mm"
   viewBox="0 0 33.468822 32.740505"
   version="1.1"
   id="svg1"
   xml:space="preserve"
   xmlns="http://www.w3.org/2000/svg"
   xmlns:svg="http://www.w3.org/2000/svg"><defs
     id="defs1" /><g
     id="layer1"
     style="display:inline"
     transform="translate(-526.28914,-639.60396)"><path
       d="m 547.8639,640.58578 3.09025,2.24534 4.9997,3.63285 3.09025,9.51053 -8.08995,-5.87819 z"
       style="fill:#6daedb;fill-opacity:1;stroke:#ffffff;stroke-width:0.75;stroke-dasharray:none;stroke-opacity:1"
       id="path27-4-3-0-0-7-3-1-8-8-0-9" /><path
       d="m 547.8639,671.36271 1.1805,-3.63285 1.91004,-5.8776 8.09013,-5.87793 -3.09056,9.51047 z"
       style="display:inline;fill:#6daedb;fill-opacity:1;stroke:#ffffff;stroke-width:0.75;stroke-dasharray:none;stroke-opacity:1"
       id="path27-4-3-0-0-7-3-1-8-8-0-9-46" /><path
       d="m 529.77324,665.48527 -1.18029,-3.63292 -1.90951,-5.87777 3.09009,-9.51061 3.0898,9.51072 z"
       style="display:inline;fill:#1d70a2;fill-opacity:1;stroke:#ffffff;stroke-width:0.75;stroke-dasharray:none;stroke-opacity:1"
       id="path27-4-3-0-0-7-3-1-8-8-0-9-46-0" /><path
       d="m 547.8639,640.58578 -5.00021,3.63285 -3.09025,2.24534 h -5.00951 -4.9904 l 4.9904,-3.62562 3.10006,-2.25257 h 4.9997 z"
       style="fill:#6daedb;fill-opacity:1;stroke:#ffffff;stroke-width:0.75;stroke-dasharray:none;stroke-opacity:1"
       id="path25-7-7-08-7-3-8-6-4-8-5-4" /><path
       d="m 542.86369,655.9745 8.09046,5.87768 -3.09025,9.51053 -5.00021,-3.63285 -3.09025,-2.24483 z"
       style="fill:#1d70a2;fill-opacity:1;stroke:#ffffff;stroke-width:0.75;stroke-dasharray:none;stroke-opacity:1"
       id="path29-4-2-9-3-8-4-7-0-7-3-4" /><path
       d="m 547.8639,640.58578 3.09025,9.51053 -8.09046,5.87819 -3.09025,-9.51053 3.09025,-2.24534 z"
       style="fill:#1d70a2;fill-opacity:1;stroke:#ffffff;stroke-width:0.75;stroke-dasharray:none;stroke-opacity:1"
       id="path26-2-5-4-3-2-3-5-0-7-3-1" /><path
       d="m 539.77344,646.46397 3.09025,9.51053 h -8.09977 -1.90014 l -3.09025,-9.51053 h 4.99039 z"
       style="fill:#1b1b3a;fill-opacity:1;stroke:#ffffff;stroke-width:0.75;stroke-dasharray:none;stroke-opacity:1"
       id="path31-9-0-3-3-2-6-8-3-0-0-7" /><path
       d="m 550.95379,650.0967 8.09022,5.87777 -6.55285,4.76093 -1.53725,1.11687 -8.09022,-5.87777 4.03731,-2.93328 z"
       style="display:inline;fill:#1b1b3a;fill-opacity:1;stroke:#ffffff;stroke-width:0.75;stroke-dasharray:none;stroke-opacity:1"
       id="path31-9-0-3-3-2-6-8-3-0-0-7-9" /><path
       d="m 547.86348,671.36345 -3.81983,-1.1e-4 -6.18016,-2.8e-4 -8.09025,-5.87779 10.00003,4e-4 z"
       style="display:inline;fill:#1b1b3a;fill-opacity:1;stroke:#ffffff;stroke-width:0.75;stroke-dasharray:none;stroke-opacity:1"
       id="path27-4-3-0-0-7-3-1-8-8-0-9-46-8" /><path
       d="m 532.86371,655.9746 9.99998,-10e-5 -2.50296,7.70335 -0.58718,1.80714 -9.99998,10e-5 1.5421,-4.74615 z"
       style="display:inline;fill:#6daedb;fill-opacity:1;stroke:#ffffff;stroke-width:0.75;stroke-dasharray:none;stroke-opacity:1"
       id="path31-9-0-3-3-2-6-8-3-0-0-7-5" /></g></svg>
