<?xml version="1.0" encoding="UTF-8" standalone="no"?>
<svg
   width="42.384mm"
   height="40.293mm"
   viewBox="0 0 42.384 40.293"
   version="1.1"
   id="svg1"
   xmlns="http://www.w3.org/2000/svg">
<g
     id="layer1"
     transform="translate(-406.689,-783.186)"><g
       id="g17"><path
         d="m 432.87271,783.34036 3.09025,2.24534 4.9997,3.63285 3.09025,9.51053 -8.08995,-5.87819 z"
         style="fill:#6daedb;fill-opacity:1;stroke:#ffffff;stroke-width:0.5;stroke-dasharray:none;stroke-opacity:1"
         id="path27-4-3-0-0-7-3-1-8-8-0-9-4-4" /><path
         d="m 424.78225,808.23961 h -5.00952 v -9.51053 h 8.09977 z"
         style="fill:#6daedb;fill-opacity:1;stroke:#ffffff;stroke-width:0.5;stroke-dasharray:none;stroke-opacity:1"
         id="path30-1-0-47-3-4-4-5-4-5-4-5-4-8" /><path
         d="m 432.87271,783.34036 -5.00021,3.63285 -3.09025,2.24534 h -5.00951 -4.9904 l 4.9904,-3.62562 3.10006,-2.25257 h 4.9997 z"
         style="fill:#6daedb;fill-opacity:1;stroke:#ffffff;stroke-width:0.5;stroke-dasharray:none;stroke-opacity:1"
         id="path25-7-7-08-7-3-8-6-4-8-5-4-5-7" /><path
         d="m 435.96296,804.60676 v 7.26519 l -3.09025,2.24534 z"
         style="fill:#6daedb;fill-opacity:1;stroke:#ffffff;stroke-width:0.5;stroke-dasharray:none;stroke-opacity:1"
         id="path37-3-4-8-3-0-9-7-6-9-7-9-9-5" /><path
         d="m 406.6924,783.34036 8.08994,5.87819 -3.09025,9.51053 -4.99969,-3.63285 z"
         style="fill:#6daedb;fill-opacity:1;stroke:#ffffff;stroke-width:0.5;stroke-dasharray:none;stroke-opacity:1"
         id="path34-3-6-2-7-0-2-1-8-9-1-1-7-9" /><path
         d="m 432.87271,814.11729 3.09025,9.51053 h -8.09046 -1.90945 l -3.09025,-9.51053 h 4.9997 z"
         style="fill:#6daedb;fill-opacity:1;stroke:#ffffff;stroke-width:0.5;stroke-dasharray:none;stroke-opacity:1"
         id="path39-3-2-0-2-8-3-0-9-9-0-7-5-5" /><path
         d="m 427.8725,798.72908 8.09046,5.87768 -3.09025,9.51053 -5.00021,-3.63285 -3.09025,-2.24483 z"
         style="fill:#1d70a2;fill-opacity:1;stroke:#ffffff;stroke-width:0.5;stroke-dasharray:none;stroke-opacity:1"
         id="path29-4-2-9-3-8-4-7-0-7-3-4-0-7" /><path
         d="m 432.87271,783.34036 3.09025,9.51053 -8.09046,5.87819 -3.09025,-9.51053 3.09025,-2.24534 z"
         style="fill:#1d70a2;fill-opacity:1;stroke:#ffffff;stroke-width:0.5;stroke-dasharray:none;stroke-opacity:1"
         id="path26-2-5-4-3-2-3-5-0-7-3-1-5-3" /><path
         d="m 444.05291,798.72908 -3.09025,-9.51053 h 8.11061 v 9.51053 z"
         style="fill:#1d70a2;fill-opacity:1;stroke:#ffffff;stroke-width:0.5;stroke-dasharray:none;stroke-opacity:1"
         id="path23-9-0-1-4-6-1-8-4-3-5-8-5-9" /><path
         d="m 414.78234,789.21855 3.09025,9.51053 h -6.1805 z"
         style="fill:#1d70a2;fill-opacity:1;stroke:#ffffff;stroke-width:0.5;stroke-dasharray:none;stroke-opacity:1"
         id="path33-4-5-8-2-5-4-5-6-2-0-8-6-7" /><path
         d="m 442.87262,783.34036 -1.90996,5.87819 -4.9997,-3.63285 -3.09025,-2.24534 h 3.09025 z"
         style="fill:#1d70a2;fill-opacity:1;stroke:#ffffff;stroke-width:0.5;stroke-dasharray:none;stroke-opacity:1"
         id="path28-90-0-7-9-0-2-4-3-5-2-3-3-7" /><path
         d="m 422.8728,814.11729 -3.10006,2.25206 v -4.50412 z"
         style="fill:#1d70a2;fill-opacity:1;stroke:#ffffff;stroke-width:0.5;stroke-dasharray:none;stroke-opacity:1"
         id="path40-9-8-4-0-3-3-4-3-6-3-5-2-9" /><path
         d="m 406.6924,795.09623 4.99969,3.63285 h -4.99969 z"
         style="fill:#1b1b3a;fill-opacity:1;stroke:#ffffff;stroke-width:0.5;stroke-dasharray:none;stroke-opacity:1"
         id="path35-9-6-71-47-7-4-2-3-0-1-6-9-3" /><path
         d="m 435.96296,792.85089 8.08995,5.87819 h -8.08995 v 5.87768 l -8.09046,-5.87768 z"
         style="fill:#1b1b3a;fill-opacity:1;stroke:#ffffff;stroke-width:0.5;stroke-dasharray:none;stroke-opacity:1"
         id="path32-9-0-3-2-1-1-1-6-6-0-6-1-3" /><path
         d="m 424.78225,789.21855 3.09025,9.51053 h -8.09977 -1.90014 l -3.09025,-9.51053 h 4.99039 z"
         style="fill:#1b1b3a;fill-opacity:1;stroke:#ffffff;stroke-width:0.5;stroke-dasharray:none;stroke-opacity:1"
         id="path31-9-0-3-3-2-6-8-3-0-0-7-4-8" /><path
         d="m 424.78225,808.23961 3.09025,2.24483 5.00021,3.63285 h -5.00021 -4.9997 l -3.10007,-2.25206 v -3.62562 z"
         style="fill:#1b1b3a;fill-opacity:1;stroke:#ffffff;stroke-width:0.5;stroke-dasharray:none;stroke-opacity:1"
         id="path36-0-8-1-17-2-5-9-4-4-9-8-8-5" /><path
         d="m 442.87262,783.34036 h 6.20065 v 5.87819 h -8.11061 z"
         style="fill:#1b1b3a;fill-opacity:1;stroke:#ffffff;stroke-width:0.5;stroke-dasharray:none;stroke-opacity:1"
         id="path22-1-0-3-6-3-2-6-4-0-7-4-8-8" /><path
         d="m 422.8728,783.34036 -3.10006,2.25257 -4.9904,3.62562 -8.08994,-5.87819 h 13.08033 z"
         style="fill:#1b1b3a;fill-opacity:1;stroke:#ffffff;stroke-width:0.5;stroke-dasharray:none;stroke-opacity:1"
         id="path24-1-5-0-1-3-5-1-0-5-1-1-7-9" /><path
         d="m 435.96296,811.87195 v 11.75587 l -3.09025,-9.51053 z"
         style="fill:#1b1b3a;fill-opacity:1;stroke:#ffffff;stroke-width:0.5;stroke-dasharray:none;stroke-opacity:1"
         id="path38-5-9-6-4-8-9-2-0-6-7-7-1-6" /><path
         id="path8-0-3-8-9-1-0-5-5-9-6-3-8-0-2-0-4-7-8-4-1-9-0"
         style="fill:#1b1b3a;fill-opacity:1;stroke:#ffffff;stroke-width:0.5;stroke-dasharray:none;stroke-opacity:1"
         d="m 419.76274,823.62936 0.01,-7.26001 3.10006,-2.25206 3.09018,9.51057 z" /><path
         style="fill:none;fill-opacity:1;stroke:#1b1b3a;stroke-width:0.5;stroke-dasharray:none;stroke-opacity:1"
         d="m 406.68874,783.33536 42.36752,0.01 0.0159,15.38345 h -13.11032 v 24.89875 l -16.18219,-0.003 -0.008,-24.8957 H 406.6914 Z"
         id="path14" /></g></g></svg>
