<?xml version="1.0" encoding="UTF-8" standalone="no"?>
<!-- Created with Inkscape (http://www.inkscape.org/) -->

<svg
   width="43.082123mm"
   height="40.98819mm"
   viewBox="0 0 43.082123 40.98819"
   version="1.1"
   id="svg1"
   inkscape:version="1.4.2 (ebf0e940, 2025-05-08)"
   sodipodi:docname="tiled.svg"
   xml:space="preserve"
   xmlns:inkscape="http://www.inkscape.org/namespaces/inkscape"
   xmlns:sodipodi="http://sodipodi.sourceforge.net/DTD/sodipodi-0.dtd"
   xmlns="http://www.w3.org/2000/svg"
   xmlns:svg="http://www.w3.org/2000/svg"><sodipodi:namedview
     id="namedview1"
     pagecolor="#ffffff"
     bordercolor="#000000"
     borderopacity="0.25"
     inkscape:showpageshadow="2"
     inkscape:pageopacity="0.0"
     inkscape:pagecheckerboard="0"
     inkscape:deskcolor="#d1d1d1"
     inkscape:document-units="mm"
     inkscape:zoom="0.41774722"
     inkscape:cx="381.80984"
     inkscape:cy="2184.3353"
     inkscape:window-width="1728"
     inkscape:window-height="995"
     inkscape:window-x="0"
     inkscape:window-y="34"
     inkscape:window-maximized="1"
     inkscape:current-layer="layer1"><inkscape:page
       x="8.9690057e-15"
       y="5.8117384e-14"
       width="43.082127"
       height="40.988194"
       id="page2"
       margin="0"
       bleed="0" /></sodipodi:namedview><defs
     id="defs1" /><g
     inkscape:groupmode="layer"
     id="layer3"
     inkscape:label="Layer 3"
     transform="translate(-473.08015,-782.58578)"><g
       id="g124"><path
         style="baseline-shift:baseline;display:inline;overflow:visible;vector-effect:none;fill:#6daedb;enable-background:accumulate;stop-color:#000000"
         d="m 499.6111,782.93579 3.09025,2.24534 4.9997,3.63285 3.09025,9.51053 -8.08995,-5.87819 z"
         id="path76" /><path
         style="baseline-shift:baseline;display:inline;overflow:visible;vector-effect:none;fill:#6daedb;enable-background:accumulate;stop-color:#000000"
         d="m 491.52064,807.83504 h -5.00952 v -9.51053 h 8.09977 z"
         id="path78" /><path
         style="baseline-shift:baseline;display:inline;overflow:visible;vector-effect:none;fill:#6daedb;enable-background:accumulate;stop-color:#000000"
         d="m 499.6111,782.93579 -5.00021,3.63285 -3.09025,2.24534 h -5.00951 -4.9904 l 4.9904,-3.62562 3.10006,-2.25257 h 4.9997 z"
         id="path80" /><path
         style="baseline-shift:baseline;display:inline;overflow:visible;vector-effect:none;fill:#6daedb;enable-background:accumulate;stop-color:#000000"
         d="m 502.70135,804.20219 v 7.26519 l -3.09025,2.24534 z"
         id="path82" /><path
         style="baseline-shift:baseline;display:inline;overflow:visible;vector-effect:none;fill:#6daedb;enable-background:accumulate;stop-color:#000000"
         d="m 473.43079,782.93579 8.08994,5.87819 -3.09025,9.51053 -4.99969,-3.63285 z"
         id="path84" /><path
         style="baseline-shift:baseline;display:inline;overflow:visible;vector-effect:none;fill:#6daedb;enable-background:accumulate;stop-color:#000000"
         d="m 499.6111,813.71272 3.09025,9.51053 h -8.09046 -1.90945 l -3.09025,-9.51053 h 4.9997 z"
         id="path86" /></g><g
       id="g123"><path
         style="baseline-shift:baseline;display:inline;overflow:visible;vector-effect:none;fill:#1d70a2;enable-background:accumulate;stop-color:#000000"
         d="m 494.61089,798.32451 8.09046,5.87768 -3.09025,9.51053 -5.00021,-3.63285 -3.09025,-2.24483 z"
         id="path88" /><path
         style="baseline-shift:baseline;display:inline;overflow:visible;vector-effect:none;fill:#1d70a2;enable-background:accumulate;stop-color:#000000"
         d="m 499.6111,782.93579 3.09025,9.51053 -8.09046,5.87819 -3.09025,-9.51053 3.09025,-2.24534 z"
         id="path90" /><path
         style="baseline-shift:baseline;display:inline;overflow:visible;vector-effect:none;fill:#1d70a2;enable-background:accumulate;stop-color:#000000"
         d="m 511.04687,797.97461 -3.34582,-9.16063 h 8.11061 v 9.51053 z"
         id="path92"
         sodipodi:nodetypes="ccccc" /><path
         style="baseline-shift:baseline;display:inline;overflow:visible;vector-effect:none;fill:#1d70a2;enable-background:accumulate;stop-color:#000000"
         d="m 481.52073,788.81398 3.09025,9.51053 h -6.1805 z"
         id="path100" /><path
         style="baseline-shift:baseline;display:inline;overflow:visible;vector-effect:none;fill:#1d70a2;enable-background:accumulate;stop-color:#000000"
         d="m 509.61101,782.93579 -1.90996,5.87819 -4.9997,-3.63285 -3.09025,-2.24534 h 3.09025 z"
         id="path102" /><path
         style="baseline-shift:baseline;display:inline;overflow:visible;vector-effect:none;fill:#1d70a2;enable-background:accumulate;stop-color:#000000"
         d="m 489.61119,813.71272 -3.10006,2.25206 v -4.50412 z"
         id="path104" /></g><g
       id="g122"><path
         style="baseline-shift:baseline;display:inline;overflow:visible;vector-effect:none;fill:#1b1b3a;enable-background:accumulate;stop-color:#000000"
         d="m 473.43079,794.69166 4.99969,3.63285 h -4.99969 z"
         id="path106" /><path
         style="baseline-shift:baseline;display:inline;overflow:visible;vector-effect:none;fill:#1b1b3a;enable-background:accumulate;stop-color:#000000"
         d="m 502.70135,792.44632 8.08995,5.87819 h -8.08995 v 5.87768 l -8.09046,-5.87768 z"
         id="path108" /><path
         style="baseline-shift:baseline;display:inline;overflow:visible;vector-effect:none;fill:#1b1b3a;enable-background:accumulate;stop-color:#000000"
         d="m 491.52064,788.81398 3.09025,9.51053 h -8.09977 -1.90014 l -3.09025,-9.51053 h 4.99039 z"
         id="path110" /><path
         style="baseline-shift:baseline;display:inline;overflow:visible;vector-effect:none;fill:#1b1b3a;enable-background:accumulate;stop-color:#000000"
         d="m 491.52064,807.83504 3.09025,2.24483 5.00021,3.63285 h -5.00021 -4.9997 l -3.10007,-2.25206 v -3.62562 z"
         id="path112" /><path
         style="baseline-shift:baseline;display:inline;overflow:visible;vector-effect:none;fill:#1b1b3a;enable-background:accumulate;stop-color:#000000"
         d="m 509.61101,782.93579 h 6.20065 v 5.87819 h -8.11061 z"
         id="path114" /><path
         style="baseline-shift:baseline;display:inline;overflow:visible;vector-effect:none;fill:#1b1b3a;enable-background:accumulate;stop-color:#000000"
         d="m 489.61119,782.93579 -3.10006,2.25257 -4.9904,3.62562 -8.08994,-5.87819 h 13.08033 z"
         id="path116" /><path
         style="baseline-shift:baseline;display:inline;overflow:visible;vector-effect:none;fill:#1b1b3a;enable-background:accumulate;stop-color:#000000"
         d="m 502.70135,811.46738 v 11.75587 l -3.09025,-9.51053 z"
         id="path118" /><path
         style="baseline-shift:baseline;display:inline;overflow:visible;vector-effect:none;fill:#1b1b3a;enable-background:accumulate;stop-color:#000000"
         d="m 486.50113,823.22479 0.01,-7.26001 3.10006,-2.25206 3.09018,9.51057 z"
         id="path120" /></g><g
       id="g125"><path
         id="path77"
         style="baseline-shift:baseline;display:inline;overflow:visible;vector-effect:none;fill:#ffffff;enable-background:accumulate;stop-color:#000000"
         d="m 473.08017,782.58582 v 12.28349 3.80442 h 6.42751 5.58416 1.06815 v 9.51156 3.45354 5.01365 l 5.2e-4,-5.2e-4 -0.0103,6.92206 6.29677,-0.002 5.2e-4,0.002 h 2.16369 8.4398 v -11.92744 -6.75773 -6.21512 h 8.81806 4.29328 v -10.20868 -5.87923 h -6.07043 -7.39076 -2.01383 -1.41077 -4.66535 -3.92379 -4.17545 z m 1.42782,0.69919 h 12.00392 2.02313 l -2.23036,1.61954 -4.78317,3.47627 z m 15.21664,0 h 5.2e-4 4.886 3.92379 l -4.13049,3.00033 -2.99982,2.17971 h -4.89272 -3.91449 l 4.11912,-2.99413 z m 10.96264,0 h 2.01383 6.42803 l -0.91054,2.80396 -0.70176,2.15852 -4.61058,-3.34915 z m 9.17773,0 h 5.59604 v 5.18004 h -7.27862 z m -10.43915,0.21755 2.86339,8.8098 -7.49412,5.44566 -2.86287,-8.80979 2.88406,-2.09652 z m -25.64443,0.12093 2.8174,2.0469 4.51031,3.2768 -2.86287,8.81032 -4.46484,-3.24425 z m 26.49399,0.22789 2.22053,1.61334 4.90668,3.56567 2.72283,8.37675 -7.12566,-5.17643 z m -18.27227,5.31285 h 4.50877 4.75371 l 2.86339,8.81032 h -7.6171 -1.64693 l -0.65061,-2.00195 z m 26.17876,0 h 7.27914 v 8.81032 h -4.4142 l -1.87844,-5.77588 z m -26.66245,0.7829 2.60966,8.02742 h -5.21726 z m 21.18268,2.93161 4.36046,3.16828 2.65203,1.92753 h -7.36285 v 5.54075 l -7.14479,-5.1909 z m -28.92071,2.5001 3.57187,2.59571 h -3.57187 z m 13.07982,3.29489 h 7.26777 l -2.86339,8.81083 h -4.40438 z m 7.93388,0.21704 7.49412,5.44515 -2.86339,8.81031 -4.60954,-3.34915 -2.88406,-2.09599 1.34307,-4.13463 z m 7.55665,7.52306 v 4.87515 l -2.0743,1.50637 z m -15.49053,1.77146 h 4.54494 l 2.99827,2.17817 4.12894,2.99981 h -3.92224 -4.88549 l -2.86442,-2.08049 z m 0,3.96307 2.15439,1.56476 -2.15439,1.56425 z m 15.49053,0.004 v 8.85941 l -2.32854,-7.16597 z m -12.25972,1.90997 h 4.5191 4.74442 l 1.27899,3.93412 1.58543,4.87671 h -7.60884 -1.65623 z m -0.66559,0.21807 0.9617,2.95796 1.83141,5.6348 -5.36815,0.002 0.0103,-6.73241 z" /></g></g></svg>
